<svg width="16" height="12" viewBox="0 0 16 12" fill="none" xmlns="http://www.w3.org/2000/svg">
<path fill-rule="evenodd" clip-rule="evenodd" d="M9.49473 11.374C9.49473 11.54 9.558 11.6992 9.67062 11.8166C9.78324 11.934 9.93598 12 10.0953 12H14.8995C15.0587 12 15.2115 11.934 15.3241 11.8166C15.4367 11.6992 15.5 11.54 15.5 11.374V6.36556C15.5 6.19952 15.4367 6.04028 15.3241 5.92287C15.2115 5.80547 15.0587 5.73951 14.8995 5.73951C14.7402 5.73951 14.5875 5.80547 14.4748 5.92287C14.3622 6.04028 14.2989 6.19952 14.2989 6.36556V9.62101L9.95953 4.0905C9.90641 4.0229 9.84031 3.96765 9.76546 3.92829C9.69063 3.88894 9.60871 3.86635 9.52499 3.86199C9.44128 3.85762 9.35761 3.87158 9.27938 3.90295C9.20115 3.93433 9.13008 3.98243 9.07076 4.04417L5.96363 7.28335L1.57257 0.989049C1.47651 0.861713 1.33685 0.778152 1.18293 0.755923C1.02901 0.733695 0.872816 0.774532 0.747173 0.869851C0.62153 0.96517 0.53622 1.10755 0.509171 1.26707C0.482121 1.42659 0.515438 1.59083 0.60212 1.72528L5.40634 8.61182C5.45733 8.68505 5.52295 8.74589 5.59866 8.79014C5.67438 8.83439 5.7584 8.861 5.84493 8.86814C5.93146 8.87528 6.01845 8.86278 6.0999 8.8315C6.18135 8.80022 6.25533 8.7509 6.31674 8.68695L9.45029 5.41897L13.6324 10.7479H10.0953C9.93598 10.7479 9.78324 10.8139 9.67062 10.9313C9.558 11.0487 9.49473 11.2079 9.49473 11.374Z" fill="#F03D3D"/>
</svg>
