<svg width="16" height="12" viewBox="0 0 16 12" fill="none" xmlns="http://www.w3.org/2000/svg">
<path fill-rule="evenodd" clip-rule="evenodd" d="M9.49473 0.626049C9.49473 0.460011 9.558 0.300773 9.67062 0.183366C9.78324 0.0659589 9.93598 0 10.0953 0H14.8995C15.0587 0 15.2115 0.0659589 15.3241 0.183366C15.4367 0.300773 15.5 0.460011 15.5 0.626049V5.63444C15.5 5.80048 15.4367 5.95972 15.3241 6.07713C15.2115 6.19453 15.0587 6.26049 14.8995 6.26049C14.7402 6.26049 14.5875 6.19453 14.4748 6.07713C14.3622 5.95972 14.2989 5.80048 14.2989 5.63444V2.37899L9.95953 7.9095C9.90641 7.9771 9.84031 8.03235 9.76546 8.07171C9.69063 8.11106 9.60871 8.13365 9.52499 8.13801C9.44128 8.14238 9.35761 8.12842 9.27938 8.09705C9.20115 8.06567 9.13008 8.01757 9.07076 7.95583L5.96363 4.71665L1.57257 11.011C1.47651 11.1383 1.33685 11.2218 1.18293 11.2441C1.02901 11.2663 0.872816 11.2255 0.747173 11.1301C0.62153 11.0348 0.53622 10.8924 0.509171 10.7329C0.482121 10.5734 0.515438 10.4092 0.60212 10.2747L5.40634 3.38818C5.45733 3.31495 5.52295 3.25411 5.59866 3.20986C5.67438 3.16561 5.7584 3.139 5.84493 3.13186C5.93146 3.12472 6.01845 3.13722 6.0999 3.1685C6.18135 3.19978 6.25533 3.2491 6.31674 3.31305L9.45029 6.58103L13.6324 1.2521H10.0953C9.93598 1.2521 9.78324 1.18614 9.67062 1.06873C9.558 0.951325 9.49473 0.792088 9.49473 0.626049Z" fill="#0BB07B"/>
</svg>
